# Blender v3.1.2 OBJ File: ''
# www.blender.org
mtllib tail_propeller.mtl
o AW101_backrotor.001
v 0.266551 -17.585978 8.411275
v -0.266549 -5.893874 3.161181
v -0.266549 -17.585978 8.411275
v 0.266551 -5.893874 3.161181
v 0.266551 -6.715473 -0.020623
v 0.266551 -2.661473 -0.626618
v 0.266551 -18.912773 5.456273
v -0.266549 -18.912773 5.456273
v -0.266549 -6.715473 -0.020623
v -0.266549 -1.837374 3.237079
v 0.266551 0.227927 0.592583
v -0.266549 -0.145673 -0.246521
v -0.266549 0.227927 0.592583
v 0.266551 -0.145673 -0.246521
v 0.266551 -1.837374 3.237079
v -0.266549 -2.661473 -0.626618
v 0.266551 -8.411167 -17.585924
v -0.266549 -3.161171 -5.893921
v -0.266549 -8.411167 -17.585924
v 0.266551 -3.161171 -5.893921
v 0.266551 0.020629 -6.715416
v 0.266551 0.626627 -2.661522
v 0.266551 -5.456267 -18.912819
v -0.266549 -5.456267 -18.912819
v -0.266549 0.020629 -6.715416
v -0.266549 -3.237073 -1.837319
v 0.266551 -0.592573 0.227981
v -0.266549 0.246527 -0.145622
v -0.266549 -0.592573 0.227981
v 0.266551 0.246527 -0.145622
v 0.266551 -3.237173 -1.837319
v -0.266549 0.626627 -2.661522
v 0.266551 17.585932 -8.411214
v -0.266549 5.893928 -3.161216
v -0.266549 17.585932 -8.411214
v 0.266551 5.893928 -3.161216
v 0.266551 6.715427 0.020684
v 0.266551 2.661528 0.626679
v 0.266551 18.912827 -5.456220
v -0.266549 18.912827 -5.456220
v -0.266549 6.715427 0.020684
v -0.266549 1.837327 -3.237121
v 0.266551 -0.227973 -0.592621
v -0.266549 0.145627 0.246483
v -0.266549 -0.227973 -0.592621
v 0.266551 0.145627 0.246483
v 0.266551 1.837327 -3.237121
v -0.266549 2.661528 0.626679
v 0.266551 8.411222 17.585886
v -0.266549 3.161225 5.893883
v -0.266549 8.411222 17.585886
v 0.266551 3.161225 5.893883
v 0.266551 -0.020675 6.715382
v 0.266551 -0.626674 2.661480
v 0.266551 5.456222 18.912781
v -0.266549 5.456222 18.912781
v -0.266549 -0.020675 6.715382
v -0.266549 3.237126 1.837380
v 0.266551 0.592627 -0.228020
v -0.266549 -0.246473 0.145584
v -0.266549 0.592627 -0.228020
v 0.266551 -0.246473 0.145584
v 0.266551 3.237126 1.837380
v -0.266549 -0.626574 2.661480
vt 0.587800 0.982700
vt 0.491800 0.978700
vt 0.587800 0.978700
vt 0.491800 0.982700
vt 0.491800 0.910200
vt 0.487700 0.934500
vt 0.458100 0.926200
vt 0.587800 0.934500
vt 0.587800 0.910200
vt 0.587800 0.939300
vt 0.487700 0.935300
vt 0.587800 0.935300
vt 0.487700 0.939300
vt 0.487700 0.940400
vt 0.491800 0.964600
vt 0.464300 0.977600
vt 0.587800 0.964600
vt 0.587800 0.940400
vt 0.587800 0.987700
vt 0.563500 0.983700
vt 0.587800 0.983700
vt 0.563500 0.987700
vt 0.587800 0.992800
vt 0.580900 0.988800
vt 0.587800 0.988800
vt 0.580900 0.992800
vt 0.464300 0.982700
vt 0.464300 0.978700
vt 0.458100 0.939300
vt 0.458100 0.935300
vt 0.458100 0.948700
vt 0.442100 0.965800
vt 0.442100 0.959000
vt 0.442100 0.982700
vt 0.442100 0.978700
vt 0.464300 0.897200
vt 0.442100 0.915900
vt 0.442100 0.909000
vt 0.442100 0.939300
vt 0.442100 0.935300
vt 0.587800 0.982700
vt 0.491800 0.978700
vt 0.587800 0.978700
vt 0.491800 0.982700
vt 0.491800 0.910200
vt 0.487700 0.934500
vt 0.458100 0.926200
vt 0.587800 0.934500
vt 0.587800 0.910200
vt 0.587800 0.939300
vt 0.487700 0.935300
vt 0.587800 0.935300
vt 0.487700 0.939300
vt 0.487700 0.940400
vt 0.491800 0.964600
vt 0.464300 0.977600
vt 0.587800 0.964600
vt 0.587800 0.940400
vt 0.587800 0.987700
vt 0.563500 0.983700
vt 0.587800 0.983700
vt 0.563500 0.987700
vt 0.587800 0.992800
vt 0.580900 0.988800
vt 0.587800 0.988800
vt 0.580900 0.992800
vt 0.464300 0.982700
vt 0.464300 0.978700
vt 0.458100 0.939300
vt 0.458100 0.935300
vt 0.458100 0.948700
vt 0.442100 0.965800
vt 0.442100 0.959000
vt 0.442100 0.982700
vt 0.442100 0.978700
vt 0.464300 0.897200
vt 0.442100 0.915900
vt 0.442100 0.909000
vt 0.442100 0.939300
vt 0.442100 0.935300
vt 0.587800 0.982700
vt 0.491800 0.978700
vt 0.587800 0.978700
vt 0.491800 0.982700
vt 0.491800 0.910200
vt 0.487700 0.934500
vt 0.458100 0.926200
vt 0.587800 0.934500
vt 0.587800 0.910200
vt 0.587800 0.939300
vt 0.487700 0.935300
vt 0.587800 0.935300
vt 0.487700 0.939300
vt 0.487700 0.940400
vt 0.491800 0.964600
vt 0.464300 0.977600
vt 0.587800 0.964600
vt 0.587800 0.940400
vt 0.587800 0.987700
vt 0.563500 0.983700
vt 0.587800 0.983700
vt 0.563500 0.987700
vt 0.587800 0.992800
vt 0.580900 0.988800
vt 0.587800 0.988800
vt 0.580900 0.992800
vt 0.464300 0.982700
vt 0.464300 0.978700
vt 0.458100 0.939300
vt 0.458100 0.935300
vt 0.458100 0.948700
vt 0.442100 0.965800
vt 0.442100 0.959000
vt 0.442100 0.982700
vt 0.442100 0.978700
vt 0.464300 0.897200
vt 0.442100 0.915900
vt 0.442100 0.909000
vt 0.442100 0.939300
vt 0.442100 0.935300
vt 0.587800 0.982700
vt 0.491800 0.978700
vt 0.587800 0.978700
vt 0.491800 0.982700
vt 0.491800 0.910200
vt 0.487700 0.934500
vt 0.458100 0.926200
vt 0.587800 0.934500
vt 0.587800 0.910200
vt 0.587800 0.939300
vt 0.487700 0.935300
vt 0.587800 0.935300
vt 0.487700 0.939300
vt 0.487700 0.940400
vt 0.491800 0.964600
vt 0.464300 0.977600
vt 0.587800 0.964600
vt 0.587800 0.940400
vt 0.587800 0.987700
vt 0.563500 0.983700
vt 0.587800 0.983700
vt 0.563500 0.987700
vt 0.587800 0.992800
vt 0.580900 0.988800
vt 0.587800 0.988800
vt 0.580900 0.992800
vt 0.464300 0.982700
vt 0.464300 0.978700
vt 0.458100 0.939300
vt 0.458100 0.935300
vt 0.458100 0.948700
vt 0.442100 0.965800
vt 0.442100 0.959000
vt 0.442100 0.982700
vt 0.442100 0.978700
vt 0.464300 0.897200
vt 0.442100 0.915900
vt 0.442100 0.909000
vt 0.442100 0.939300
vt 0.442100 0.935300
vn -0.0000 -0.4973 0.8676
vn 1.0000 -0.0000 0.0000
vn 0.0000 0.4973 -0.8676
vn -0.0003 0.4973 -0.8676
vn -1.0000 -0.0000 0.0000
vn -0.0000 -0.8676 -0.4973
vn -0.0000 0.8660 0.5000
vn 0.0000 -0.8199 0.5725
vn 0.0000 0.7132 -0.7009
vn 0.0000 -0.0347 0.9994
vn 0.0000 0.8877 -0.4603
vn -0.0003 -0.8676 -0.4973
vn 0.0000 0.8676 0.4973
vn -0.0000 -0.5000 0.8660
vn 0.0000 -0.5725 -0.8199
vn -0.0001 -0.5725 -0.8199
vn 0.0000 0.7009 0.7132
vn -0.0000 -0.9994 -0.0347
vn -0.0001 -0.9994 -0.0347
vn 0.0000 0.4603 0.8877
vn -0.0000 -0.8660 -0.5000
vn 0.0000 0.8199 -0.5725
vn 0.0000 -0.7132 0.7009
vn 0.0000 0.0347 -0.9994
vn 0.0000 -0.8878 0.4603
vn -0.0000 0.5000 -0.8660
vn 0.0000 0.5725 0.8199
vn 0.0000 -0.7009 -0.7132
vn -0.0002 -0.7009 -0.7132
vn 0.0000 0.9994 0.0347
vn 0.0000 -0.4603 -0.8877
vn -0.0001 -0.4603 -0.8877
vn -0.0000 -0.4603 -0.8878
usemtl AW101_AW101_sha.001
s 1
f 1/1/1 2/2/1 3/3/1
f 1/1/1 4/4/1 2/2/1
f 4/5/2 5/6/2 6/7/2
f 4/5/2 7/8/2 5/6/2
f 1/9/2 7/8/2 4/5/2
f 8/10/3 5/11/4 7/12/3
f 8/10/3 9/13/3 5/11/4
f 9/14/5 2/15/5 10/16/5
f 9/14/5 3/17/5 2/15/5
f 8/18/5 3/17/5 9/14/5
f 7/19/6 3/20/6 8/21/6
f 7/19/6 1/22/6 3/20/6
f 11/23/7 12/24/7 13/25/7
f 11/23/7 14/26/7 12/24/7
f 15/27/8 2/2/8 4/4/8
f 15/27/8 10/28/8 2/2/8
f 16/29/9 5/11/9 9/13/9
f 16/29/9 6/30/9 5/11/9
f 16/31/5 13/32/5 12/33/5
f 16/31/5 10/16/5 13/32/5
f 9/14/5 10/16/5 16/31/5
f 11/34/10 10/28/10 15/27/10
f 11/34/10 13/35/10 10/28/10
f 15/36/2 14/37/2 11/38/2
f 15/36/2 6/7/2 14/37/2
f 4/5/2 6/7/2 15/36/2
f 12/39/11 6/30/11 16/29/11
f 12/39/11 14/40/11 6/30/11
f 17/41/12 18/42/6 19/43/6
f 17/41/12 20/44/6 18/42/6
f 20/45/2 21/46/2 22/47/2
f 20/45/2 23/48/2 21/46/2
f 17/49/2 23/48/2 20/45/2
f 24/50/13 21/51/13 23/52/13
f 24/50/13 25/53/13 21/51/13
f 25/54/5 18/55/5 26/56/5
f 25/54/5 19/57/5 18/55/5
f 24/58/5 19/57/5 25/54/5
f 23/59/3 19/60/3 24/61/3
f 23/59/3 17/62/3 19/60/3
f 27/63/14 28/64/14 29/65/14
f 27/63/14 30/66/14 28/64/14
f 31/67/15 18/42/15 20/44/15
f 31/67/15 26/68/16 18/42/15
f 32/69/17 21/51/17 25/53/17
f 32/69/17 22/70/17 21/51/17
f 32/71/5 29/72/5 28/73/5
f 32/71/5 26/56/5 29/72/5
f 25/54/5 26/56/5 32/71/5
f 27/74/18 26/68/18 31/67/19
f 27/74/18 29/75/18 26/68/18
f 31/76/2 30/77/2 27/78/2
f 31/76/2 22/47/2 30/77/2
f 20/45/2 22/47/2 31/76/2
f 28/79/20 22/70/20 32/69/20
f 28/79/20 30/80/20 22/70/20
f 33/81/3 34/82/3 35/83/3
f 33/81/3 36/84/3 34/82/3
f 36/85/2 37/86/2 38/87/2
f 36/85/2 39/88/2 37/86/2
f 33/89/2 39/88/2 36/85/2
f 40/90/1 37/91/1 39/92/1
f 40/90/1 41/93/1 37/91/1
f 41/94/5 34/95/5 42/96/5
f 41/94/5 35/97/5 34/95/5
f 40/98/5 35/97/5 41/94/5
f 39/99/13 35/100/13 40/101/13
f 39/99/13 33/102/13 35/100/13
f 43/103/21 44/104/21 45/105/21
f 43/103/21 46/106/21 44/104/21
f 47/107/22 34/82/22 36/84/22
f 47/107/22 42/108/22 34/82/22
f 48/109/23 37/91/23 41/93/23
f 48/109/23 38/110/23 37/91/23
f 48/111/5 45/112/5 44/113/5
f 48/111/5 42/96/5 45/112/5
f 41/94/5 42/96/5 48/111/5
f 43/114/24 42/108/24 47/107/24
f 43/114/24 45/115/24 42/108/24
f 47/116/2 46/117/2 43/118/2
f 47/116/2 38/87/2 46/117/2
f 36/85/2 38/87/2 47/116/2
f 44/119/25 38/110/25 48/109/25
f 44/119/25 46/120/25 38/110/25
f 49/121/13 50/122/13 51/123/13
f 49/121/13 52/124/13 50/122/13
f 52/125/2 53/126/2 54/127/2
f 52/125/2 55/128/2 53/126/2
f 49/129/2 55/128/2 52/125/2
f 56/130/6 53/131/6 55/132/6
f 56/130/6 57/133/6 53/131/6
f 57/134/5 50/135/5 58/136/5
f 57/134/5 51/137/5 50/135/5
f 56/138/5 51/137/5 57/134/5
f 55/139/1 51/140/1 56/141/1
f 55/139/1 49/142/1 51/140/1
f 59/143/26 60/144/26 61/145/26
f 59/143/26 62/146/26 60/144/26
f 63/147/27 50/122/27 52/124/27
f 63/147/27 58/148/27 50/122/27
f 64/149/28 53/131/28 57/133/28
f 64/149/28 54/150/29 53/131/28
f 64/151/5 61/152/5 60/153/5
f 64/151/5 58/136/5 61/152/5
f 57/134/5 58/136/5 64/151/5
f 59/154/30 58/148/30 63/147/30
f 59/154/30 61/155/30 58/148/30
f 63/156/2 62/157/2 59/158/2
f 63/156/2 54/127/2 62/157/2
f 52/125/2 54/127/2 63/156/2
f 60/159/31 54/150/31 64/149/32
f 60/159/31 62/160/33 54/150/31
